<?xml version="1.0" encoding="utf-8"?>
<!-- Generator: Adobe Illustrator 16.0.0, SVG Export Plug-In . SVG Version: 6.00 Build 0)  -->
<!DOCTYPE svg PUBLIC "-//W3C//DTD SVG 1.1 Basic//EN" "http://www.w3.org/Graphics/SVG/1.1/DTD/svg11-basic.dtd">
<svg version="1.1" baseProfile="basic" id="Layer_1"
	 xmlns="http://www.w3.org/2000/svg" xmlns:xlink="http://www.w3.org/1999/xlink" x="0px" y="0px" width="810.081px"
	 height="1440.144px" viewBox="70.826 44.324 810.081 1440.144" xml:space="preserve">
<g id="Layer_1_1_" display="none">
	<path display="inline" fill="#FFFFFF" stroke="#010202" d="M22,6L22,6h11c9,4,9,4,18,0h11"/>
	<path display="inline" fill="#FFFFFF" stroke="#010202" d="M60.625,59"/>
	<path display="inline" fill="#FFFFFF" stroke="#010202" stroke-linejoin="round" d="M61.823,6.62L62.083,6l18.5,18.5l-13,13
		l-6.521-5.167V59.75L22.965,60"/>
	<path display="inline" fill="#FFFFFF" stroke="#010202" stroke-linejoin="round" d="M22.965,60V32.583l-6.521,5.167l-13-13
		l18.5-18.5l0.26,0.62"/>
</g>
<path fill="#BF1D1D" stroke="#010202" stroke-width="10" stroke-linejoin="round" d="M282.415,74.916h110c0,0,91.25,76.25,180,0
	c23.75,0,110,0,110,0l185.828,185l-130,130l-65.203-51.672l-0.244,276.672H292.063V390.358v-49.614l-65.211,51.672l-130-130
	L282.415,74.916z"/>
<path fill="#333333" stroke="#010202" stroke-width="10" stroke-linejoin="round" d="M292.555,656.916h380l50,375h-200l-40-130
	l-40,130h-200L292.555,656.916z"/>
<path fill="#BF1D1D" stroke="#010202" stroke-width="10" stroke-linecap="square" stroke-linejoin="round" d="M537.555,1465.237
	v-335h150l-20,335"/>
<path fill="#BF1D1D" stroke="#010202" stroke-width="10" stroke-linecap="square" stroke-linejoin="round" d="M297.563,1465.237
	l-20-335h150v335"/>
<path fill="none" stroke="#FFFFFF" stroke-width="4" stroke-linejoin="round" d="M371.856,209.34c0,10.037-1.168,73.831-3.336,82.93
	c-9.39,39.402-37.54,67.97-70.853,67.97"/>
<path fill="none" stroke="#FFFFFF" stroke-width="4" stroke-linejoin="round" d="M593.906,209.34c0,10.037,1.168,73.831,3.336,82.93
	c9.391,39.402,37.541,67.97,70.854,67.97"/>
<path fill="#919191" stroke="#919191" stroke-width="10" stroke-linejoin="round" d="M107.797,267.827l34.5-35.5l55.42,55.247
	c0,0,48.481,28.11,76.496,0l-74.833,72.166"/>
<path fill="#919191" stroke="#919191" stroke-width="10" stroke-linejoin="round" d="M857.213,264.827l-34.5-35.5l-55.42,55.247
	c0,0-48.482,28.11-76.496,0l74.832,72.166"/>
<polygon fill="#FFFFFF" stroke="#FFFFFF" stroke-linejoin="round" points="211.396,180.791 178.792,188.489 200.699,166.363 
	233.303,158.665 "/>
<polygon fill="#FFFFFF" stroke="#FFFFFF" stroke-linejoin="round" points="291.918,987.155 269.509,1007.931 263.209,970.265 
	285.619,949.49 "/>
<polygon fill="#FFFFFF" stroke="#FFFFFF" stroke-linejoin="round" points="302.923,918.605 280.514,939.381 274.214,901.715 
	296.624,880.94 "/>
<polygon fill="#FFFFFF" stroke="#FFFFFF" stroke-linejoin="round" points="312.021,852.861 289.612,873.637 283.312,835.971 
	305.721,815.196 "/>
<polygon fill="#FFFFFF" stroke="#FFFFFF" stroke-linejoin="round" points="319.278,788.111 296.869,808.887 290.568,771.221 
	312.978,750.446 "/>
<polygon fill="#FFFFFF" stroke="#FFFFFF" stroke-linejoin="round" points="753.264,180.791 785.867,188.489 763.961,166.363 
	731.357,158.665 "/>
<polygon fill="#FFFFFF" stroke="#FFFFFF" stroke-linejoin="round" points="256.157,136.072 223.537,143.699 245.492,121.621 
	278.113,113.994 "/>
<polygon fill="#FFFFFF" stroke="#FFFFFF" stroke-linejoin="round" points="710.752,136.072 743.373,143.699 721.416,121.621 
	688.797,113.994 "/>
<polygon fill="#FFFFFF" stroke="#FFFFFF" stroke-miterlimit="10" points="270.756,94.451 302.756,94.451 293.756,80.451 
	284.756,80.451 "/>
<polygon fill="#FFFFFF" stroke="#FFFFFF" stroke-miterlimit="10" points="694.203,94.42 662.203,94.42 671.203,80.42 680.203,80.42 
	"/>
<polygon fill="#FFFFFF" stroke="#FFFFFF" stroke-linejoin="round" points="339.443,91.124 360.943,91.124 349.818,79.998 
	328.318,79.998 "/>
<polygon fill="#FFFFFF" stroke="#FFFFFF" stroke-linejoin="round" points="629.816,91.124 608.316,91.124 619.441,79.998 
	640.941,79.998 "/>
<polygon fill="#FFFFFF" stroke="#FFFFFF" stroke-linejoin="round" points="673.377,988.906 695.785,1009.682 702.086,972.016 
	679.676,951.241 "/>
<polygon fill="#FFFFFF" stroke="#FFFFFF" stroke-linejoin="round" points="662.371,920.356 684.781,941.132 691.082,903.466 
	668.672,882.691 "/>
<polygon fill="#FFFFFF" stroke="#FFFFFF" stroke-linejoin="round" points="653.273,854.612 675.684,875.388 681.984,837.722 
	659.574,816.947 "/>
<polygon fill="#FFFFFF" stroke="#FFFFFF" stroke-linejoin="round" points="646.018,789.862 668.426,810.638 674.727,772.972 
	652.316,752.197 "/>
<line fill="#FFFFFF" stroke="#FFFFFF" stroke-width="3" stroke-linejoin="round" x1="250.825" y1="1024.156" x2="435.64" y2="1024.156"/>
<line fill="#FFFFFF" stroke="#FFFFFF" stroke-width="3" stroke-linejoin="round" x1="531.27" y1="1024.156" x2="716.084" y2="1024.156"/>
<line fill="#727272" stroke="#7A7A7A" stroke-width="3" stroke-linejoin="round" x1="297.667" y1="1023.156" x2="352.563" y2="664.173"/>
<line fill="#727272" stroke="#7A7A7A" stroke-width="3" stroke-linejoin="round" x1="612.555" y1="664.173" x2="667.451" y2="1023.156"/>
</svg>
