<?xml version="1.0" encoding="utf-8"?>
<!-- Generator: Adobe Illustrator 16.0.0, SVG Export Plug-In . SVG Version: 6.00 Build 0)  -->
<!DOCTYPE svg PUBLIC "-//W3C//DTD SVG 1.1 Basic//EN" "http://www.w3.org/Graphics/SVG/1.1/DTD/svg11-basic.dtd">
<svg version="1.1" baseProfile="basic" id="Layer_1"
	 xmlns="http://www.w3.org/2000/svg" xmlns:xlink="http://www.w3.org/1999/xlink" x="0px" y="0px" width="781.39px" height="550px"
	 viewBox="91.853 69.916 781.39 550" xml:space="preserve">
<g id="Layer_1_1_" display="none">
	<path display="inline" fill="#FFFFFF" stroke="#010202" d="M22,6L22,6h11c9,4,9,4,18,0h11"/>
	<path display="inline" fill="#FFFFFF" stroke="#010202" d="M60.625,59"/>
	<path display="inline" fill="#FFFFFF" stroke="#010202" stroke-linejoin="round" d="M61.823,6.62L62.083,6l18.5,18.5l-13,13
		l-6.521-5.167V59.75L22.965,60"/>
	<path display="inline" fill="#FFFFFF" stroke="#010202" stroke-linejoin="round" d="M22.965,60V32.583l-6.521,5.167l-13-13
		l18.5-18.5l0.26,0.62"/>
</g>
<path fill="#BF1D1D" stroke="#010202" stroke-width="10" stroke-linejoin="round" d="M282.415,74.916h110c0,0,91.25,76.25,180,0
	c23.75,0,110,0,110,0l185.828,185l-130,130l-65.203-51.672l-0.244,276.672H292.063V390.358v-49.614l-65.211,51.672l-130-130
	L282.415,74.916z"/>
<path fill="none" stroke="#FFFFFF" stroke-width="4" stroke-linejoin="round" d="M371.856,209.34c0,10.037-1.168,73.831-3.336,82.93
	c-9.39,39.402-37.54,67.97-70.853,67.97"/>
<path fill="none" stroke="#FFFFFF" stroke-width="4" stroke-linejoin="round" d="M593.906,209.34c0,10.037,1.168,73.831,3.336,82.93
	c9.391,39.402,37.541,67.97,70.854,67.97"/>
<path fill="#919191" stroke="#919191" stroke-width="10" stroke-linejoin="round" d="M107.797,267.827l34.5-35.5l55.42,55.247
	c0,0,48.481,28.11,76.496,0l-74.833,72.166"/>
<path fill="#919191" stroke="#919191" stroke-width="10" stroke-linejoin="round" d="M857.213,264.827l-34.5-35.5l-55.42,55.247
	c0,0-48.482,28.11-76.496,0l74.832,72.166"/>
<polygon fill="#FFFFFF" stroke="#FFFFFF" stroke-linejoin="round" points="211.396,180.791 178.792,188.489 200.699,166.363 
	233.303,158.665 "/>
<polygon fill="#FFFFFF" stroke="#FFFFFF" stroke-linejoin="round" points="753.264,180.791 785.867,188.489 763.961,166.363 
	731.357,158.665 "/>
<polygon fill="#FFFFFF" stroke="#FFFFFF" stroke-linejoin="round" points="256.157,136.072 223.537,143.699 245.492,121.621 
	278.113,113.994 "/>
<polygon fill="#FFFFFF" stroke="#FFFFFF" stroke-linejoin="round" points="710.752,136.072 743.373,143.699 721.416,121.621 
	688.797,113.994 "/>
<polygon fill="#FFFFFF" stroke="#FFFFFF" stroke-miterlimit="10" points="270.756,94.451 302.756,94.451 293.756,80.451 
	284.756,80.451 "/>
<polygon fill="#FFFFFF" stroke="#FFFFFF" stroke-miterlimit="10" points="694.203,94.42 662.203,94.42 671.203,80.42 680.203,80.42 
	"/>
<polygon fill="#FFFFFF" stroke="#FFFFFF" stroke-linejoin="round" points="339.443,91.124 360.943,91.124 349.818,79.998 
	328.318,79.998 "/>
<polygon fill="#FFFFFF" stroke="#FFFFFF" stroke-linejoin="round" points="629.816,91.124 608.316,91.124 619.441,79.998 
	640.941,79.998 "/>
</svg>
