<?xml version="1.0" encoding="utf-8"?>
<!-- Generator: Adobe Illustrator 16.0.0, SVG Export Plug-In . SVG Version: 6.00 Build 0)  -->
<!DOCTYPE svg PUBLIC "-//W3C//DTD SVG 1.1 Basic//EN" "http://www.w3.org/Graphics/SVG/1.1/DTD/svg11-basic.dtd">
<svg version="1.1" baseProfile="basic" id="Layer_1"
	 xmlns="http://www.w3.org/2000/svg" xmlns:xlink="http://www.w3.org/1999/xlink" x="0px" y="0px" width="810.082px"
	 height="603.06px" viewBox="0 35.324 810.082 603.06" xml:space="preserve">
<g id="Layer_1_1_" display="none">
	<path display="inline" fill="#FFFFFF" stroke="#010202" d="M22,6L22,6h11c9,4,9,4,18,0h11"/>
	<path display="inline" fill="#FFFFFF" stroke="#010202" d="M60.625,59"/>
	<path display="inline" fill="#FFFFFF" stroke="#010202" stroke-linejoin="round" d="M61.823,6.62L62.083,6l18.5,18.5l-13,13
		l-6.521-5.167V59.75L22.965,60"/>
	<path display="inline" fill="#FFFFFF" stroke="#010202" stroke-linejoin="round" d="M22.965,60V32.583l-6.521,5.167l-13-13
		l18.5-18.5l0.26,0.62"/>
</g>
<path fill="#2D3B8F" stroke="#010202" stroke-width="10" stroke-linejoin="round" d="M204.908,74.916h110c0,0,91.25,76.25,180,0
	c23.75,0,110,0,110,0l185.828,185l-130,130l-65.203-51.672l-0.244,276.672H214.556V390.358v-49.614l-65.211,51.672l-130-130
	L204.908,74.916z"/>
<path fill="none" stroke="#FFFFFF" stroke-width="4" stroke-linejoin="round" d="M294.349,209.34c0,10.037-1.169,73.831-3.337,82.93
	c-9.39,39.402-37.539,67.97-70.853,67.97"/>
<path fill="none" stroke="#FFFFFF" stroke-width="4" stroke-linejoin="round" d="M516.398,209.34c0,10.037,1.168,73.831,3.336,82.93
	c9.391,39.402,37.541,67.97,70.854,67.97"/>
<path fill="#919191" stroke="#919191" stroke-width="10" stroke-linejoin="round" d="M30.29,267.827l34.5-35.5l55.42,55.247
	c0,0,48.481,28.11,76.496,0l-74.833,72.166"/>
<path fill="#919191" stroke="#919191" stroke-width="10" stroke-linejoin="round" d="M779.705,264.827l-34.5-35.5l-55.42,55.247
	c0,0-48.482,28.11-76.496,0l74.832,72.166"/>
<polygon fill="#FFFFFF" stroke="#FFFFFF" stroke-linejoin="round" points="133.889,180.791 101.285,188.489 123.192,166.363 
	155.796,158.665 "/>
<polygon fill="#FFFFFF" stroke="#FFFFFF" stroke-linejoin="round" points="675.755,180.791 708.359,188.489 686.453,166.363 
	653.849,158.665 "/>
<polygon fill="#FFFFFF" stroke="#FFFFFF" stroke-linejoin="round" points="178.65,136.072 146.03,143.699 167.985,121.621 
	200.605,113.994 "/>
<polygon fill="#FFFFFF" stroke="#FFFFFF" stroke-linejoin="round" points="633.244,136.072 665.865,143.699 643.908,121.621 
	611.289,113.994 "/>
<polygon fill="#FFFFFF" stroke="#FFFFFF" stroke-miterlimit="10" points="193.249,94.451 225.249,94.451 216.249,80.451 
	207.249,80.451 "/>
<polygon fill="#FFFFFF" stroke="#FFFFFF" stroke-miterlimit="10" points="616.695,94.42 584.695,94.42 593.695,80.42 602.695,80.42 
	"/>
<polygon fill="#FFFFFF" stroke="#FFFFFF" stroke-linejoin="round" points="261.936,91.124 283.436,91.124 272.311,79.998 
	250.811,79.998 "/>
<polygon fill="#FFFFFF" stroke="#FFFFFF" stroke-linejoin="round" points="552.308,91.124 530.808,91.124 541.933,79.998 
	563.433,79.998 "/>
</svg>
